<svg width="48" height="48" viewBox="0 0 48 48" fill="none" xmlns="http://www.w3.org/2000/svg">
<path d="M24.2204 0.179932C11.1388 0.179932 0.531006 11.0878 0.531006 24.5445C0.531006 35.3096 7.31874 44.4426 16.7313 47.6643C17.9152 47.8899 18.3498 47.1358 18.3498 46.4922C18.3498 45.9112 18.3279 43.9919 18.3177 41.956C11.7273 43.4299 10.3366 39.0812 10.3366 39.0812C9.25899 36.265 7.70632 35.5161 7.70632 35.5161C5.55698 34.0039 7.86833 34.035 7.86833 34.035C10.2472 34.2065 11.4997 36.5458 11.4997 36.5458C13.6126 40.2707 17.0416 39.1938 18.3934 38.5712C18.606 36.9969 19.2199 35.9212 19.8974 35.3132C14.6357 34.6971 9.10443 32.6079 9.10443 23.2719C9.10443 20.6118 10.0298 18.4383 11.5452 16.732C11.2993 16.1179 10.4884 13.6402 11.7747 10.2841C11.7747 10.2841 13.764 9.62928 18.291 12.7816C20.1806 12.2418 22.2072 11.971 24.2204 11.9618C26.2336 11.971 28.2617 12.2418 30.1549 12.7816C34.6764 9.62928 36.6629 10.2841 36.6629 10.2841C37.9524 13.6402 37.1411 16.1179 36.8952 16.732C38.4141 18.4383 39.3332 20.6118 39.3332 23.2719C39.3332 32.6301 33.7914 34.6906 28.5163 35.2938C29.366 36.0499 30.1231 37.5327 30.1231 39.8059C30.1231 43.0655 30.0957 45.6893 30.0957 46.4922C30.0957 47.1406 30.5221 47.9003 31.7229 47.6611C41.1303 44.4357 47.9094 35.3059 47.9094 24.5445C47.9094 11.0878 37.3032 0.179932 24.2204 0.179932Z" fill="white"/>
<path d="M9.50333 35.1623C9.45116 35.2837 9.266 35.3196 9.09731 35.2365C8.92549 35.157 8.82899 34.992 8.88469 34.8706C8.93569 34.7459 9.12124 34.7116 9.29267 34.7943C9.46489 34.8742 9.56296 35.0408 9.50333 35.1623Z" fill="white"/>
<path d="M10.4629 36.2629C10.3499 36.3707 10.1291 36.3206 9.97923 36.1504C9.82427 35.9805 9.79524 35.7533 9.90979 35.644C10.0263 35.5363 10.2405 35.5867 10.3958 35.7566C10.5508 35.9285 10.581 36.154 10.4629 36.2629Z" fill="white"/>
<path d="M11.3969 37.6662C11.2518 37.7699 11.0145 37.6727 10.8677 37.456C10.7226 37.2394 10.7226 36.9795 10.8709 36.8754C11.018 36.7713 11.2518 36.865 11.4005 37.08C11.5452 37.2999 11.5452 37.5601 11.3969 37.6662Z" fill="white"/>
<path d="M12.6765 39.0219C12.5467 39.1692 12.2701 39.1297 12.0677 38.9287C11.8606 38.7322 11.8029 38.4534 11.9332 38.3062C12.0646 38.1585 12.3427 38.2001 12.5467 38.3994C12.7523 38.5955 12.815 38.8763 12.6765 39.0219Z" fill="white"/>
<path d="M14.4419 39.8091C14.3846 39.9999 14.1182 40.0867 13.8499 40.0056C13.582 39.9221 13.4066 39.6985 13.4607 39.5057C13.5164 39.3136 13.784 39.2232 14.0543 39.31C14.3218 39.3931 14.4976 39.615 14.4419 39.8091Z" fill="white"/>
<path d="M16.3805 39.9552C16.3872 40.1561 16.1597 40.3227 15.878 40.3259C15.5948 40.3328 15.3657 40.1702 15.3625 39.9725C15.3625 39.7696 15.585 39.6045 15.8682 39.5997C16.1499 39.594 16.3805 39.7554 16.3805 39.9552Z" fill="white"/>
<path d="M18.1846 39.6392C18.2183 39.8353 18.0226 40.0367 17.7429 40.0899C17.4679 40.142 17.2133 40.0209 17.1784 39.8265C17.1442 39.6255 17.3435 39.4242 17.6181 39.3721C17.8982 39.3221 18.1489 39.4399 18.1846 39.6392Z" fill="white"/>
</svg>
