<svg width="48" height="48" viewBox="0 0 48 48" fill="none" xmlns="http://www.w3.org/2000/svg">
<path fill-rule="evenodd" clip-rule="evenodd" d="M24.0222 0C10.9146 0 0.288818 10.7452 0.288818 24C0.288818 37.2548 10.9146 48 24.0222 48C37.1297 48 47.7555 37.2548 47.7555 24C47.7555 10.7452 37.1297 0 24.0222 0ZM18.8041 11.2773C20.1542 11.2152 20.5857 11.2 24.0233 11.2H24.0194C27.4581 11.2 27.888 11.2152 29.2381 11.2773C30.5857 11.3397 31.506 11.5555 32.313 11.872C33.1463 12.1987 33.8504 12.636 34.5545 13.348C35.2586 14.0595 35.691 14.7736 36.0154 15.6155C36.3266 16.4294 36.5402 17.3595 36.6035 18.7222C36.6641 20.0876 36.6799 20.5238 36.6799 24.0001C36.6799 27.4764 36.6641 27.9116 36.6035 29.277C36.5402 30.6391 36.3266 31.5695 36.0154 32.3837C35.691 33.2253 35.2586 33.9394 34.5545 34.6509C33.8512 35.3629 33.146 35.8013 32.3137 36.1283C31.5084 36.4448 30.5875 36.6605 29.24 36.7229C27.8898 36.7851 27.4597 36.8003 24.0218 36.8003C20.5843 36.8003 20.1532 36.7851 18.803 36.7229C17.4557 36.6605 16.5357 36.4448 15.7303 36.1283C14.8983 35.8013 14.1921 35.3629 13.4888 34.6509C12.785 33.9394 12.3525 33.2253 12.0289 32.3834C11.7162 31.5695 11.5028 30.6394 11.4408 29.2767C11.3797 27.9114 11.3644 27.4764 11.3644 24.0001C11.3644 20.5238 11.3802 20.0873 11.4406 18.7219C11.5012 17.3598 11.7148 16.4294 12.0287 15.6152C12.353 14.7736 12.7855 14.0595 13.4896 13.348C14.1932 12.6363 14.8994 12.1989 15.7319 11.872C16.5367 11.5555 17.4565 11.3397 18.8041 11.2773Z" fill="white"/>
<path fill-rule="evenodd" clip-rule="evenodd" d="M22.8878 13.5067C23.1083 13.5063 23.3455 13.5064 23.6015 13.5066L24.0233 13.5067C27.403 13.5067 27.8036 13.5189 29.1382 13.5803C30.3723 13.6373 31.0421 13.8459 31.4883 14.0211C32.079 14.2531 32.5002 14.5304 32.9429 14.9784C33.386 15.4264 33.6602 15.8531 33.8902 16.4504C34.0634 16.9011 34.2699 17.5785 34.3261 18.8265C34.3867 20.1758 34.3999 20.5812 34.3999 23.9972C34.3999 27.4132 34.3867 27.8186 34.3261 29.1679C34.2696 30.4159 34.0634 31.0933 33.8902 31.5439C33.6607 32.1413 33.386 32.5666 32.9429 33.0143C32.4999 33.4624 32.0793 33.7397 31.4883 33.9717C31.0427 34.1477 30.3723 34.3557 29.1382 34.4128C27.8038 34.4741 27.403 34.4874 24.0233 34.4874C20.6434 34.4874 20.2428 34.4741 18.9085 34.4128C17.6743 34.3552 17.0045 34.1466 16.5581 33.9714C15.9674 33.7394 15.5454 33.4621 15.1024 33.0141C14.6594 32.5661 14.3851 32.1405 14.1552 31.5429C13.9819 31.0922 13.7754 30.4149 13.7193 29.1668C13.6586 27.8175 13.6465 27.4122 13.6465 23.994C13.6465 20.5758 13.6586 20.1726 13.7193 18.8233C13.7757 17.5753 13.9819 16.8979 14.1552 16.4467C14.3846 15.8494 14.6594 15.4227 15.1024 14.9747C15.5454 14.5267 15.9674 14.2494 16.5581 14.0168C17.0043 13.8408 17.6743 13.6328 18.9085 13.5755C20.0762 13.5221 20.5287 13.5061 22.8878 13.5035V13.5067ZM30.78 15.632C29.9414 15.632 29.2611 16.3192 29.2611 17.1675C29.2611 18.0155 29.9414 18.7035 30.78 18.7035C31.6186 18.7035 32.299 18.0155 32.299 17.1675C32.299 16.3195 31.6186 15.6315 30.78 15.6315V15.632ZM17.523 24.0001C17.523 20.37 20.4334 17.4269 24.0231 17.4267C27.6129 17.4267 30.5226 20.37 30.5226 24.0001C30.5226 27.6303 27.6132 30.5722 24.0233 30.5722C20.4335 30.5722 17.523 27.6303 17.523 24.0001Z" fill="white"/>
<path d="M24.0233 19.7334C26.3534 19.7334 28.2426 21.6436 28.2426 24.0001C28.2426 26.3564 26.3534 28.2668 24.0233 28.2668C21.6929 28.2668 19.804 26.3564 19.804 24.0001C19.804 21.6436 21.6929 19.7334 24.0233 19.7334Z" fill="white"/>
</svg>
