<svg width="49" height="48" viewBox="0 0 49 48" fill="none" xmlns="http://www.w3.org/2000/svg">
<path fill-rule="evenodd" clip-rule="evenodd" d="M0.733398 24C0.733398 10.7452 11.3592 0 24.4667 0C37.5743 0 48.2001 10.7452 48.2001 24C48.2001 37.2548 37.5743 48 24.4667 48C11.3592 48 0.733398 37.2548 0.733398 24ZM20.6501 17.5369L13.0515 13.7404C12.9864 13.7079 12.9245 13.6925 12.8685 13.6925C12.7887 13.6925 12.7212 13.7239 12.6738 13.7811C12.6273 13.837 12.6001 13.9179 12.6001 14.0191V30.3176C12.6001 30.595 12.8032 30.9234 13.0515 31.0474L20.0735 34.5558C20.171 34.6046 20.264 34.6277 20.348 34.6277C20.5846 34.6277 20.7505 34.4448 20.7505 34.1377V17.6994C20.7505 17.6306 20.7116 17.5677 20.6501 17.5369ZM36.3736 34.5505L29.5502 31.1413L37.0507 18.962V34.1323C37.0507 34.5484 36.746 34.7365 36.3736 34.5505ZM21.4709 18.7568V27.1096L28.9011 30.8219L21.4709 18.7568ZM29.1267 13.6276L36.8721 17.4975C36.9685 17.5457 37.0029 17.6661 36.9464 17.7579L29.324 30.1352L23.9948 21.4816L28.7688 13.7296C28.8195 13.6473 28.9133 13.6 29.0075 13.6C29.01 13.6 29.0125 13.6008 29.015 13.6008C29.0533 13.6019 29.0916 13.61 29.1267 13.6276Z" fill="white"/>
</svg>
