<svg width="49" height="48" viewBox="0 0 49 48" fill="none" xmlns="http://www.w3.org/2000/svg">
<path fill-rule="evenodd" clip-rule="evenodd" d="M48.0445 24C48.0445 37.2548 37.4188 48 24.3112 48C11.2037 48 0.577881 37.2548 0.577881 24C0.577881 10.7452 11.2037 0 24.3112 0C37.4188 0 48.0445 10.7452 48.0445 24ZM28.7219 9.06842L12.2571 10.2936C10.9294 10.4098 10.4668 11.285 10.4668 12.3342V30.5316C10.4668 31.3492 10.7552 32.048 11.4487 32.982L15.3191 38.0563C15.9549 38.8734 16.5326 39.0482 17.7466 38.9897L36.867 37.823C38.4842 37.7069 38.9468 36.9481 38.9468 35.665V15.1925C38.9468 14.5292 38.6871 14.3376 37.9215 13.7728C37.8794 13.7418 37.8357 13.7096 37.7905 13.6761L32.5347 9.94338C31.2639 9.01056 30.7437 8.89318 28.7219 9.06842Z" fill="white"/>
<path fill-rule="evenodd" clip-rule="evenodd" d="M15.3779 14.2596C16.3014 15.0177 16.6478 14.9598 18.3818 14.8429L34.729 13.8511C35.0757 13.8511 34.7874 13.5015 34.6718 13.4435L31.9569 11.4602C31.4367 11.0521 30.7436 10.5848 29.4153 10.7017L13.5862 11.8683C13.009 11.9261 12.8936 12.2178 13.1236 12.4516L15.3779 14.2596Z" fill="white"/>
<path fill-rule="evenodd" clip-rule="evenodd" d="M16.3594 35.4897V18.1093C16.3594 17.3512 16.5905 17.001 17.2833 16.9422L36.0575 15.8344C36.6943 15.776 36.9827 16.1846 36.9827 16.9422V34.206C36.9827 34.9648 36.8668 35.6073 35.8266 35.6651L17.861 36.7155C16.8213 36.7733 16.3594 36.4238 16.3594 35.4897ZM33.574 20.1511C34.095 20.092 34.2101 19.5671 34.095 19.0416L30.1078 19.2761C29.5301 19.334 29.0686 19.8004 29.1839 20.4428L30.6863 20.617V28.6662L24.7937 19.5673L20.5187 19.8585C19.7093 19.9173 19.421 20.6749 19.5367 21.2003L20.9806 21.3172V32.8075L19.9407 33.0987C19.5365 33.2155 19.4207 33.7983 19.5365 34.0319L23.5215 33.7983C24.9671 33.7983 24.9671 32.7489 24.9671 32.7489L23.1754 32.3404V23.65L28.8375 32.632C29.5301 33.5064 29.7616 33.7983 30.6863 33.7983C31.2638 33.7983 31.9568 33.5649 32.7084 33.1568V20.3254L33.574 20.1511Z" fill="white"/>
</svg>
