<svg width="48" height="48" viewBox="0 0 48 48" fill="none" xmlns="http://www.w3.org/2000/svg">
<path fill-rule="evenodd" clip-rule="evenodd" d="M0.155518 24C0.155518 37.2548 10.7813 48 23.8889 48C36.9964 48 47.6222 37.2548 47.6222 24C47.6222 10.7452 36.9964 0 23.8889 0C10.7813 0 0.155518 10.7452 0.155518 24ZM19.5377 35L19.9415 28.8823L19.9412 28.882L30.9465 18.839C31.4295 18.4055 30.841 18.1941 30.1998 18.5873L16.6178 27.2523L10.7511 25.4007C9.4842 25.0084 9.4751 24.128 11.0356 23.4951L33.8967 14.5809C34.9409 14.1015 35.9486 14.8345 35.55 16.4505L31.6568 35.0031C31.3849 36.3215 30.5972 36.6368 29.5057 36.0278L23.5751 31.5969L20.7244 34.4C20.7154 34.4088 20.7065 34.4176 20.6976 34.4264C20.3788 34.7403 20.115 35 19.5377 35Z" fill="white"/>
</svg>
