<svg width="49" height="48" viewBox="0 0 49 48" fill="none" xmlns="http://www.w3.org/2000/svg">
<path fill-rule="evenodd" clip-rule="evenodd" d="M24.6 0C11.4925 0 0.866699 10.7452 0.866699 24C0.866699 37.2548 11.4925 48 24.6 48C37.7076 48 48.3334 37.2548 48.3334 24C48.3334 10.7452 37.7076 0 24.6 0ZM23.939 20.338L23.8892 19.5075C23.7398 17.3551 25.0513 15.3891 27.1264 14.6265C27.8901 14.3553 29.1849 14.3214 30.0316 14.5587C30.3636 14.6604 30.9944 14.9993 31.4427 15.3044L32.2561 15.8637L33.1526 15.5756C33.6506 15.423 34.3146 15.1688 34.6135 14.9993C34.8957 14.8468 35.1447 14.762 35.1447 14.8129C35.1447 15.101 34.5304 16.084 34.0158 16.6263C33.3186 17.389 33.5178 17.4568 34.9289 16.9483C35.7755 16.6602 35.7921 16.6602 35.6261 16.9822C35.5265 17.1517 35.0119 17.7449 34.464 18.2872C33.5344 19.2194 33.4846 19.3211 33.4846 20.1007C33.4846 21.304 32.9202 23.8123 32.3557 25.1851C31.3099 27.7612 29.0687 30.422 26.8276 31.7609C23.6734 33.6422 19.4734 34.1167 15.9374 33.0151C14.7587 32.6422 12.7334 31.6931 12.7334 31.5237C12.7334 31.4728 13.3476 31.405 14.0946 31.3881C15.6551 31.3542 17.2156 30.9135 18.5437 30.1339L19.4402 29.5916L18.4109 29.2357C16.95 28.7272 15.6385 27.5578 15.3065 26.4562C15.2069 26.1003 15.2401 26.0833 16.1698 26.0833L17.1326 26.0664L16.3192 25.6766C15.3563 25.1851 14.4765 24.3546 14.0448 23.5072C13.7294 22.8971 13.331 21.3548 13.4472 21.2362C13.4804 21.1854 13.829 21.287 14.2275 21.4226C15.3729 21.8463 15.5223 21.7446 14.8583 21.0328C13.6132 19.7448 13.2314 17.8296 13.829 16.0162L14.1112 15.2027L15.2069 16.3043C17.448 18.5245 20.0876 19.8465 23.109 20.2363L23.939 20.338Z" fill="white"/>
</svg>
