<svg width="48" height="48" viewBox="0 0 48 48" fill="none" xmlns="http://www.w3.org/2000/svg">
<path fill-rule="evenodd" clip-rule="evenodd" d="M23.7333 0C10.6258 0 0 10.7452 0 24C0 37.2548 10.6258 48 23.7333 48C36.8409 48 47.4667 37.2548 47.4667 24C47.4667 10.7452 36.8409 0 23.7333 0ZM33.6238 15.7493C34.7131 16.0516 35.5709 16.9422 35.8621 18.0732C36.3911 20.123 36.3911 24.4 36.3911 24.4C36.3911 24.4 36.3911 28.6768 35.8621 30.7268C35.5709 31.8578 34.7131 32.7484 33.6238 33.0508C31.6498 33.6 23.7333 33.6 23.7333 33.6C23.7333 33.6 15.8169 33.6 13.8427 33.0508C12.7534 32.7484 11.8956 31.8578 11.6044 30.7268C11.0756 28.6768 11.0756 24.4 11.0756 24.4C11.0756 24.4 11.0756 20.123 11.6044 18.0732C11.8956 16.9422 12.7534 16.0516 13.8427 15.7493C15.8169 15.2 23.7333 15.2 23.7333 15.2C23.7333 15.2 31.6498 15.2 33.6238 15.7493Z" fill="white"/>
<path d="M21.3601 28.8V20.8L27.689 24.8001L21.3601 28.8Z" fill="white"/>
</svg>
