<svg width="257" height="123" viewBox="0 0 257 123" fill="none" xmlns="http://www.w3.org/2000/svg">
<g filter="url(#filter0_d_119_142)">
<path d="M20 61.7127C20 40.5598 36.4604 23.0084 57.5909 22.0348C79.5422 21.0233 107.051 20 128.5 20C149.949 20 177.458 21.0233 199.409 22.0348C220.54 23.0084 237 40.5598 237 61.7127C237 83.099 220.179 100.759 198.806 101.495C176.953 102.246 149.747 103 128.5 103C107.253 103 80.0474 102.246 58.1942 101.495C36.8205 100.759 20 83.099 20 61.7127Z" fill="url(#paint0_linear_119_142)"/>
</g>
<path d="M103.138 69V55.9091H105.906V66.718H111.518V69H103.138ZM116.099 69.1854C115.473 69.1854 114.915 69.0767 114.425 68.8594C113.934 68.6378 113.547 68.3118 113.261 67.8814C112.98 67.4467 112.839 66.9055 112.839 66.2578C112.839 65.7124 112.939 65.2543 113.14 64.8835C113.34 64.5128 113.613 64.2145 113.958 63.9886C114.303 63.7628 114.695 63.5923 115.134 63.4773C115.577 63.3622 116.042 63.2812 116.528 63.2344C117.099 63.1747 117.559 63.1193 117.908 63.0682C118.258 63.0128 118.511 62.9318 118.669 62.8253C118.827 62.7187 118.905 62.5611 118.905 62.3523V62.3139C118.905 61.9091 118.778 61.5959 118.522 61.3743C118.27 61.1527 117.912 61.0419 117.448 61.0419C116.958 61.0419 116.568 61.1506 116.278 61.3679C115.988 61.581 115.797 61.8494 115.703 62.1733L113.184 61.9688C113.312 61.3722 113.564 60.8565 113.939 60.4219C114.314 59.983 114.797 59.6463 115.39 59.4119C115.986 59.1733 116.677 59.054 117.461 59.054C118.006 59.054 118.528 59.1179 119.027 59.2457C119.53 59.3736 119.975 59.5717 120.363 59.8402C120.755 60.1087 121.064 60.4538 121.29 60.8757C121.515 61.2933 121.628 61.794 121.628 62.3778V69H119.046V67.6385H118.969C118.812 67.9453 118.601 68.2159 118.336 68.4503C118.072 68.6804 117.755 68.8615 117.384 68.9936C117.013 69.1214 116.585 69.1854 116.099 69.1854ZM116.879 67.3061C117.28 67.3061 117.633 67.2273 117.94 67.0696C118.247 66.9077 118.488 66.6903 118.662 66.4176C118.837 66.1449 118.925 65.8359 118.925 65.4908V64.4489C118.839 64.5043 118.722 64.5554 118.573 64.6023C118.428 64.6449 118.264 64.6854 118.081 64.7237C117.898 64.7578 117.714 64.7898 117.531 64.8196C117.348 64.8452 117.182 64.8686 117.032 64.8899C116.713 64.9368 116.434 65.0114 116.195 65.1136C115.956 65.2159 115.771 65.3544 115.639 65.5291C115.507 65.6996 115.441 65.9126 115.441 66.1683C115.441 66.5391 115.575 66.8224 115.844 67.0185C116.116 67.2102 116.461 67.3061 116.879 67.3061ZM130.037 64.8196V59.1818H132.76V69H130.146V67.2166H130.044C129.822 67.7919 129.453 68.2543 128.938 68.6037C128.426 68.9531 127.802 69.1278 127.065 69.1278C126.409 69.1278 125.831 68.9787 125.333 68.6804C124.834 68.3821 124.444 67.9581 124.163 67.4084C123.886 66.8587 123.745 66.2003 123.741 65.4332V59.1818H126.464V64.9474C126.468 65.527 126.624 65.9851 126.931 66.3217C127.237 66.6584 127.649 66.8267 128.164 66.8267C128.492 66.8267 128.799 66.7521 129.085 66.603C129.37 66.4496 129.6 66.2237 129.775 65.9254C129.954 65.6271 130.041 65.2585 130.037 64.8196ZM137.661 63.3239V69H134.938V59.1818H137.533V60.9141H137.648C137.866 60.343 138.23 59.8913 138.741 59.5589C139.253 59.2223 139.873 59.054 140.602 59.054C141.283 59.054 141.878 59.2031 142.385 59.5014C142.892 59.7997 143.286 60.2259 143.567 60.7798C143.849 61.3295 143.989 61.9858 143.989 62.7486V69H141.266V63.2344C141.271 62.6335 141.117 62.1648 140.806 61.8281C140.495 61.4872 140.067 61.3168 139.521 61.3168C139.155 61.3168 138.831 61.3956 138.55 61.5533C138.273 61.7109 138.055 61.9411 137.898 62.2436C137.744 62.5419 137.665 62.902 137.661 63.3239ZM150.572 69.1918C149.566 69.1918 148.701 68.9787 147.976 68.5526C147.256 68.1222 146.702 67.5256 146.314 66.7628C145.931 66 145.739 65.1222 145.739 64.1293C145.739 63.1236 145.933 62.2415 146.321 61.483C146.713 60.7202 147.269 60.1257 147.989 59.6996C148.709 59.2692 149.566 59.054 150.559 59.054C151.415 59.054 152.165 59.2095 152.809 59.5206C153.452 59.8317 153.961 60.2685 154.336 60.831C154.711 61.3935 154.918 62.054 154.956 62.8125H152.387C152.314 62.3224 152.123 61.9283 151.812 61.63C151.505 61.3274 151.102 61.1761 150.604 61.1761C150.182 61.1761 149.813 61.2912 149.498 61.5213C149.187 61.7472 148.944 62.0774 148.769 62.5121C148.594 62.9467 148.507 63.473 148.507 64.0909C148.507 64.7173 148.592 65.25 148.763 65.6889C148.937 66.1278 149.182 66.4624 149.498 66.6925C149.813 66.9226 150.182 67.0376 150.604 67.0376C150.915 67.0376 151.194 66.9737 151.441 66.8459C151.692 66.718 151.899 66.5327 152.061 66.2898C152.227 66.0426 152.336 65.7464 152.387 65.4013H154.956C154.914 66.1513 154.709 66.8118 154.343 67.3828C153.981 67.9496 153.48 68.3928 152.841 68.7124C152.202 69.032 151.445 69.1918 150.572 69.1918ZM159.423 63.3239V69H156.7V55.9091H159.346V60.9141H159.461C159.683 60.3345 160.041 59.8807 160.535 59.5526C161.029 59.2202 161.65 59.054 162.395 59.054C163.077 59.054 163.672 59.2031 164.179 59.5014C164.69 59.7955 165.086 60.2195 165.368 60.7734C165.653 61.3232 165.794 61.9815 165.789 62.7486V69H163.066V63.2344C163.071 62.6293 162.917 62.1584 162.606 61.8217C162.299 61.4851 161.869 61.3168 161.315 61.3168C160.944 61.3168 160.616 61.3956 160.331 61.5533C160.049 61.7109 159.828 61.9411 159.666 62.2436C159.508 62.5419 159.427 62.902 159.423 63.3239ZM174.406 69H171.44L175.959 55.9091H179.526L184.039 69H181.073L177.794 58.9006H177.691L174.406 69ZM174.221 63.8544H181.226V66.0149H174.221V63.8544ZM185.563 72.6818V59.1818H188.248V60.831H188.369C188.489 60.5668 188.661 60.2983 188.887 60.0256C189.117 59.7486 189.415 59.5185 189.782 59.3352C190.153 59.1477 190.613 59.054 191.163 59.054C191.879 59.054 192.539 59.2415 193.144 59.6165C193.749 59.9872 194.233 60.5476 194.595 61.2976C194.957 62.0433 195.138 62.9787 195.138 64.1037C195.138 65.1989 194.962 66.1236 194.608 66.8778C194.259 67.6278 193.781 68.1967 193.176 68.5845C192.575 68.968 191.902 69.1598 191.156 69.1598C190.628 69.1598 190.178 69.0724 189.808 68.8977C189.441 68.723 189.141 68.5036 188.906 68.2393C188.672 67.9709 188.493 67.7003 188.369 67.4276H188.286V72.6818H185.563ZM188.229 64.0909C188.229 64.6747 188.31 65.1839 188.472 65.6186C188.634 66.0533 188.868 66.392 189.175 66.6349C189.482 66.8736 189.854 66.9929 190.293 66.9929C190.737 66.9929 191.112 66.8714 191.418 66.6286C191.725 66.3814 191.957 66.0405 192.115 65.6058C192.277 65.1669 192.358 64.6619 192.358 64.0909C192.358 63.5241 192.279 63.0256 192.121 62.5952C191.964 62.1648 191.732 61.8281 191.425 61.5852C191.118 61.3423 190.741 61.2209 190.293 61.2209C189.85 61.2209 189.475 61.3381 189.168 61.5724C188.866 61.8068 188.634 62.1392 188.472 62.5696C188.31 63 188.229 63.5071 188.229 64.0909ZM196.954 72.6818V59.1818H199.638V60.831H199.76C199.879 60.5668 200.052 60.2983 200.278 60.0256C200.508 59.7486 200.806 59.5185 201.173 59.3352C201.543 59.1477 202.004 59.054 202.553 59.054C203.269 59.054 203.93 59.2415 204.535 59.6165C205.14 59.9872 205.624 60.5476 205.986 61.2976C206.348 62.0433 206.529 62.9787 206.529 64.1037C206.529 65.1989 206.352 66.1236 205.999 66.8778C205.649 67.6278 205.172 68.1967 204.567 68.5845C203.966 68.968 203.293 69.1598 202.547 69.1598C202.018 69.1598 201.569 69.0724 201.198 68.8977C200.832 68.723 200.531 68.5036 200.297 68.2393C200.062 67.9709 199.884 67.7003 199.76 67.4276H199.677V72.6818H196.954ZM199.619 64.0909C199.619 64.6747 199.7 65.1839 199.862 65.6186C200.024 66.0533 200.259 66.392 200.565 66.6349C200.872 66.8736 201.245 66.9929 201.684 66.9929C202.127 66.9929 202.502 66.8714 202.809 66.6286C203.116 66.3814 203.348 66.0405 203.506 65.6058C203.668 65.1669 203.749 64.6619 203.749 64.0909C203.749 63.5241 203.67 63.0256 203.512 62.5952C203.354 62.1648 203.122 61.8281 202.815 61.5852C202.509 61.3423 202.131 61.2209 201.684 61.2209C201.241 61.2209 200.866 61.3381 200.559 61.5724C200.256 61.8068 200.024 62.1392 199.862 62.5696C199.7 63 199.619 63.5071 199.619 64.0909Z" fill="white"/>
<g filter="url(#filter1_d_119_142)">
<circle cx="58.5" cy="61.5" r="28.5" fill="url(#paint1_linear_119_142)"/>
</g>
<path d="M59.5 54.5L66.5 61.5L59.5 68.5M50.5 61.5H66.5H50.5Z" stroke="white" stroke-width="2" stroke-linecap="round" stroke-linejoin="round"/>
<defs>
<filter id="filter0_d_119_142" x="0" y="0" width="257" height="123" filterUnits="userSpaceOnUse" color-interpolation-filters="sRGB">
<feFlood flood-opacity="0" result="BackgroundImageFix"/>
<feColorMatrix in="SourceAlpha" type="matrix" values="0 0 0 0 0 0 0 0 0 0 0 0 0 0 0 0 0 0 127 0" result="hardAlpha"/>
<feOffset/>
<feGaussianBlur stdDeviation="10"/>
<feComposite in2="hardAlpha" operator="out"/>
<feColorMatrix type="matrix" values="0 0 0 0 0.212231 0 0 0 0 0.153281 0 0 0 0 0.3375 0 0 0 1 0"/>
<feBlend mode="normal" in2="BackgroundImageFix" result="effect1_dropShadow_119_142"/>
<feBlend mode="normal" in="SourceGraphic" in2="effect1_dropShadow_119_142" result="shape"/>
</filter>
<filter id="filter1_d_119_142" x="23" y="28" width="75" height="75" filterUnits="userSpaceOnUse" color-interpolation-filters="sRGB">
<feFlood flood-opacity="0" result="BackgroundImageFix"/>
<feColorMatrix in="SourceAlpha" type="matrix" values="0 0 0 0 0 0 0 0 0 0 0 0 0 0 0 0 0 0 127 0" result="hardAlpha"/>
<feOffset dx="2" dy="4"/>
<feGaussianBlur stdDeviation="4.5"/>
<feComposite in2="hardAlpha" operator="out"/>
<feColorMatrix type="matrix" values="0 0 0 0 0.595833 0 0 0 0 0.345087 0 0 0 0 0.519519 0 0 0 1 0"/>
<feBlend mode="normal" in2="BackgroundImageFix" result="effect1_dropShadow_119_142"/>
<feBlend mode="normal" in="SourceGraphic" in2="effect1_dropShadow_119_142" result="shape"/>
</filter>
<linearGradient id="paint0_linear_119_142" x1="7.94445" y1="-47.5" x2="145.906" y2="115.623" gradientUnits="userSpaceOnUse">
<stop stop-color="white"/>
<stop offset="0.544798" stop-color="#B971A3"/>
<stop offset="1" stop-color="#A03E82"/>
</linearGradient>
<linearGradient id="paint1_linear_119_142" x1="33" y1="33" x2="72.5" y2="82.5" gradientUnits="userSpaceOnUse">
<stop stop-color="#8462E1"/>
<stop offset="0.509434" stop-color="#55389B"/>
<stop offset="1" stop-color="#351B6F"/>
</linearGradient>
</defs>
</svg>
