<svg width="74" height="69" viewBox="0 0 74 69" fill="none" xmlns="http://www.w3.org/2000/svg">
<rect x="0.247803" width="59.7779" height="56.7411" rx="5" fill="#7A348A" fill-opacity="0.8"/>
<rect x="13.2903" y="12.036" width="59.7779" height="56.7411" rx="5" fill="#02AF91" fill-opacity="0.8"/>
<path d="M41.9145 21.875C39.5309 21.875 37.3975 22.975 36.0675 24.6625C34.7374 22.975 32.604 21.875 30.2204 21.875C26.1775 21.875 22.8984 25 22.8984 28.8625C22.8984 30.35 23.1486 31.725 23.5832 33C25.6639 39.25 32.0772 42.9875 35.251 44.0125C35.6987 44.1625 36.4362 44.1625 36.8839 44.0125C40.0577 42.9875 46.471 39.25 48.5517 33C48.9863 31.725 49.2365 30.35 49.2365 28.8625C49.2365 25 45.9574 21.875 41.9145 21.875Z" fill="white"/>
</svg>
