<svg width="74" height="69" viewBox="0 0 74 69" fill="none" xmlns="http://www.w3.org/2000/svg">
<rect x="0.65918" width="59.7779" height="56.7411" rx="5" fill="#7A348A" fill-opacity="0.8"/>
<rect x="13.7017" y="12.036" width="59.7779" height="56.7411" rx="5" fill="#02AF91" fill-opacity="0.8"/>
<path d="M33.5993 45.8811C34.7716 45.8811 35.722 44.7083 35.722 43.2617C35.722 41.8151 34.7716 40.6423 33.5993 40.6423C32.4269 40.6423 31.4766 41.8151 31.4766 43.2617C31.4766 44.7083 32.4269 45.8811 33.5993 45.8811Z" fill="white"/>
<path d="M41.7774 33.3144V31.3057C41.7774 26.9669 40.9309 21.2139 33.5991 21.2139C26.2673 21.2139 25.4209 26.9669 25.4209 31.3057V33.3144C21.7745 33.8769 20.5764 36.1588 20.5764 41.7671V44.7561C20.5764 51.3446 22.2043 53.3534 27.5436 53.3534H39.6547C44.994 53.3534 46.6218 51.3446 46.6218 44.7561V41.7671C46.6218 36.1588 45.4237 33.8769 41.7774 33.3144ZM33.5991 48.1146C31.4243 48.1146 29.6663 45.9292 29.6663 43.2616C29.6663 40.5779 31.4373 38.4085 33.5991 38.4085C35.7609 38.4085 37.532 40.594 37.532 43.2616C37.532 45.9452 35.7739 48.1146 33.5991 48.1146ZM27.5436 33.1698C27.4394 33.1698 27.3482 33.1698 27.244 33.1698V31.3057C27.244 26.5973 28.3249 23.4637 33.5991 23.4637C38.8733 23.4637 39.9542 26.5973 39.9542 31.3057V33.1859C39.85 33.1859 39.7588 33.1859 39.6547 33.1859H27.5436V33.1698Z" fill="white"/>
</svg>
