<svg width="74" height="69" viewBox="0 0 74 69" fill="none" xmlns="http://www.w3.org/2000/svg">
<rect x="0.980225" width="59.7779" height="56.7411" rx="5" fill="#7A348A" fill-opacity="0.8"/>
<rect x="14.0227" y="12.036" width="59.7779" height="56.7411" rx="5" fill="#02AF91" fill-opacity="0.8"/>
<path d="M42.3177 20.5H31.2821C26.4885 20.5 23.6309 23.2125 23.6309 27.7625V38.225C23.6309 42.7875 26.4885 45.5 31.2821 45.5H42.3045C47.098 45.5 49.9557 42.7875 49.9557 38.2375V27.7625C49.9689 23.2125 47.1112 20.5 42.3177 20.5ZM34.4558 44.25H31.4137C27.8449 44.25 24.9478 41.5 24.9478 38.1125V35.225C24.9478 34.7125 25.3955 34.2875 25.9354 34.2875C26.4754 34.2875 26.9231 34.7125 26.9231 35.225V38.1125C26.9231 40.4625 28.938 42.375 31.4137 42.375H34.4558C34.9957 42.375 35.4435 42.8 35.4435 43.3125C35.4435 43.825 35.0089 44.25 34.4558 44.25ZM34.4558 23.625H31.4137C28.938 23.625 26.9231 25.5375 26.9231 27.8875V30.775C26.9231 31.2875 26.4754 31.7125 25.9354 31.7125C25.3955 31.7125 24.9478 31.3 24.9478 30.775V27.8875C24.9478 24.5 27.8449 21.75 31.4137 21.75H34.4558C34.9957 21.75 35.4435 22.175 35.4435 22.6875C35.4435 23.2 35.0089 23.625 34.4558 23.625ZM48.652 38.1125C48.652 41.5 45.7548 44.25 42.186 44.25H40.3555C39.8156 44.25 39.3678 43.825 39.3678 43.3125C39.3678 42.8 39.8156 42.375 40.3555 42.375H42.186C44.6618 42.375 46.6766 40.4625 46.6766 38.1125V36.375C46.6766 35.8625 47.1244 35.4375 47.6643 35.4375C48.2042 35.4375 48.652 35.8625 48.652 36.375V38.1125ZM48.652 30.775C48.652 31.2875 48.2042 31.7125 47.6643 31.7125C47.1244 31.7125 46.6766 31.2875 46.6766 30.775V27.8875C46.6766 25.5375 44.6618 23.625 42.186 23.625H39.144C38.604 23.625 38.1563 23.2 38.1563 22.6875C38.1563 22.175 38.5909 21.75 39.144 21.75H42.186C45.7548 21.75 48.652 24.5 48.652 27.8875V30.775Z" fill="white"/>
</svg>
